<svg width="31" height="31" viewBox="0 0 31 31" fill="none" xmlns="http://www.w3.org/2000/svg">
<rect x="2.51953" y="2.51929" width="26" height="26" rx="4" fill="#FF9228"/>
<path d="M2 10L29 10" stroke="white" stroke-width="1.5"/>
<path d="M17 6L23.586 6" stroke="white" stroke-width="1.5" stroke-linecap="round"/>
<ellipse cx="7.12988" cy="5.9375" rx="0.9375" ry="0.9375" fill="white"/>
<ellipse cx="10.2549" cy="5.9375" rx="0.9375" ry="0.9375" fill="white"/>
<ellipse cx="13.3799" cy="5.9375" rx="0.9375" ry="0.9375" fill="white"/>
<path d="M19.8493 14.8463C20.7293 15.7263 20.7293 17.1529 19.8493 18.0328L15.7382 22.144C15.2848 22.5973 14.6885 22.8798 14.0505 22.9435L11.8011 23.1681C11.644 23.1838 11.5118 23.0517 11.5275 22.8945L11.7521 20.6451C11.8158 20.0071 12.0983 19.4108 12.5517 18.9574L16.6628 14.8463C17.5427 13.9664 18.9694 13.9664 19.8493 14.8463Z" stroke="white" stroke-width="1.5"/>
</svg>
